<svg width="95" height="56" viewBox="0 0 95 56" fill="none" xmlns="http://www.w3.org/2000/svg">
<g filter="url(#filter0_d_2_1202)">
<path d="M5.12119 1.4662C4.2417 2.3284 4.16174 3.6776 4.88133 4.62835L5.12119 4.90073L24.9723 24.3607L5.12119 43.8207C4.2417 44.6829 4.16174 46.0321 4.88133 46.9828L5.12119 47.2552C6.00068 48.1174 7.37694 48.1958 8.34676 47.4903L8.62461 47.2552L30.2266 26.078C31.1061 25.2158 31.186 23.8666 30.4664 22.9158L30.2266 22.6434L8.62461 1.4662C7.65716 0.517778 6.08863 0.517778 5.12119 1.4662Z" fill="#333333" fill-opacity="0.3"/>
<path d="M34.7662 1.4662C33.8867 2.3284 33.8068 3.6776 34.5263 4.62835L34.7662 4.90073L54.6173 24.3607L34.7662 43.8207C33.8867 44.6829 33.8068 46.0321 34.5263 46.9828L34.7662 47.2552C35.6457 48.1174 37.022 48.1958 37.9918 47.4903L38.2696 47.2552L59.8716 26.078C60.7511 25.2158 60.831 23.8666 60.1114 22.9158L59.8716 22.6434L38.2696 1.4662C37.3022 0.517778 35.7337 0.517778 34.7662 1.4662Z" fill="#333333" fill-opacity="0.6"/>
<path d="M64.4171 1.4662C63.5376 2.3284 63.4576 3.6776 64.1772 4.62835L64.4171 4.90073L84.2682 24.3607L64.4171 43.8207C63.5376 44.6829 63.4576 46.0321 64.1772 46.9828L64.4171 47.2552C65.2966 48.1174 66.6728 48.1958 67.6427 47.4903L67.9205 47.2552L89.5225 26.078C90.402 25.2158 90.4819 23.8666 89.7623 22.9158L89.5225 22.6434L67.9205 1.4662C66.9531 0.517778 65.3845 0.517778 64.4171 1.4662Z" fill="#333333"/>
</g>
<defs>
<filter id="filter0_d_2_1202" x="0.395508" y="0.754883" width="93.8525" height="55.2117" filterUnits="userSpaceOnUse" color-interpolation-filters="sRGB">
<feFlood flood-opacity="0" result="BackgroundImageFix"/>
<feColorMatrix in="SourceAlpha" type="matrix" values="0 0 0 0 0 0 0 0 0 0 0 0 0 0 0 0 0 0 127 0" result="hardAlpha"/>
<feOffset dy="4"/>
<feGaussianBlur stdDeviation="2"/>
<feComposite in2="hardAlpha" operator="out"/>
<feColorMatrix type="matrix" values="0 0 0 0 0 0 0 0 0 0 0 0 0 0 0 0 0 0 0.25 0"/>
<feBlend mode="normal" in2="BackgroundImageFix" result="effect1_dropShadow_2_1202"/>
<feBlend mode="normal" in="SourceGraphic" in2="effect1_dropShadow_2_1202" result="shape"/>
</filter>
</defs>
</svg>
