<svg xmlns="http://www.w3.org/2000/svg" xmlns:v="https://svgstorm.com"
viewBox = "0 0 640 640"
width="640"
height="640">
<g fill="None" fill-opacity="0.0" stroke="#FDFEFE" stroke-opacity="1.00" stroke-width="0.3"><path d="
M 0.00 289.00 
C 0.50 289.00 1.00 289.00 1.00 289.00
C 4.09 256.04 14.93 221.70 26.92 191.92 C 38.91 162.14 55.94 141.44 73.00 115.00
C 80.72 103.04 93.90 91.48 105.00 82.00
C 158.77 36.05 224.95 4.86 296.00 1.00
C 296.01 1.00 296.00 0.00 296.00 0.00
L 0.00 0.00
L 0.00 289.00 Z"/>
</g>
<g fill="None" fill-opacity="0.0" stroke="#69B5FD" stroke-opacity="1.00" stroke-width="0.3"><path d="
M 296.00 1.00 
C 299.86 0.79 304.97 1.97 308.00 0.00
L 296.00 0.00
C 296.00 0.00 296.01 1.00 296.00 1.00 Z"/>
</g>
<g fill="None" fill-opacity="0.0" stroke="#0268FD" stroke-opacity="1.00" stroke-width="0.3"><path d="
M 296.00 1.00 
C 224.95 4.86 158.77 36.05 105.00 82.00
C 94.38 92.62 82.35 103.62 73.00 115.00
C 55.94 141.44 38.91 162.14 26.92 191.92 C 14.93 221.70 4.09 256.04 1.00 289.00
C 0.72 291.94 1.00 295.04 1.00 298.00
C 1.00 302.50 1.82 308.33 0.00 312.00
L 0.00 330.00
C 1.99 334.10 0.74 340.14 1.00 345.00
C 2.83 378.80 12.87 414.74 24.98 445.02 C 37.08 475.31 53.81 496.48 72.00 523.00
C 74.74 525.96 77.36 528.91 80.00 532.00
C 81.96 534.30 84.08 536.75 86.00 539.00
C 90.92 543.92 96.13 549.13 101.00 554.00
C 123.01 572.80 145.34 590.87 171.00 603.00
C 175.46 605.11 179.85 607.90 184.00 610.00
C 220.49 623.47 254.13 635.84 294.00 639.00
C 299.85 639.46 306.98 637.82 312.00 640.00
L 333.00 640.00
C 335.77 638.10 340.47 639.19 344.00 639.00
C 418.33 634.96 482.92 601.92 539.00 554.00
C 544.72 548.28 550.79 542.10 556.00 536.00
C 574.12 514.79 591.27 493.81 603.00 469.00
C 605.11 464.54 607.90 460.15 610.00 456.00
C 623.34 419.86 639.00 384.07 639.00 344.00
C 639.00 340.50 638.19 335.68 640.00 333.00
L 640.00 306.00
C 638.23 302.91 639.00 297.84 639.00 294.00
C 639.00 257.99 624.46 217.88 610.70 186.31 C 596.93 154.73 579.27 130.06 557.00 104.00
C 551.27 98.27 545.12 91.13 539.00 86.00
C 510.22 65.44 489.21 43.34 455.77 30.23 C 422.34 17.11 383.91 1.00 346.00 1.00
C 342.83 1.00 338.35 1.80 336.00 0.00
L 308.00 0.00
C 304.97 1.97 299.86 0.79 296.00 1.00
M 513.00 340.00 
C 512.52 338.28 514.19 334.59 511.00 335.00
C 501.91 353.41 471.20 344.64 470.00 325.00
C 469.15 321.46 469.19 318.48 470.00 315.00
C 473.44 300.19 489.07 286.40 505.00 297.00
C 507.18 298.45 508.79 300.71 511.00 302.00
C 511.66 290.83 509.67 278.34 512.00 268.00
C 513.71 266.29 516.61 267.24 519.00 267.00
C 519.00 293.00 519.00 319.00 519.00 345.00
C 515.49 345.91 511.81 344.11 513.00 340.00
M 103.00 279.00 
C 105.15 282.90 103.91 288.89 103.22 293.22 C 102.53 297.55 95.23 298.71 94.00 294.00
C 93.88 293.53 94.00 293.00 94.00 293.00
C 91.75 289.96 91.38 277.09 97.00 276.00
C 99.81 275.45 101.72 276.68 103.00 279.00
M 117.00 304.00 
C 114.59 302.83 113.48 300.70 114.00 298.00
C 115.09 292.37 128.26 283.65 131.25 289.75 C 134.23 295.86 120.75 305.82 117.00 304.00
M 204.00 314.00 
C 204.51 317.17 205.97 320.69 202.00 323.00
C 197.68 325.51 188.61 322.70 184.00 324.00 C 179.39 325.30 168.50 321.16 166.00 325.00
C 166.19 325.41 165.96 326.50 166.00 327.00
C 166.47 332.32 171.93 335.14 176.00 337.00
C 179.06 337.93 182.61 338.42 186.00 338.00
C 190.11 336.98 193.42 335.07 197.00 333.00
C 204.12 339.69 193.02 344.68 187.00 345.00
C 183.47 345.78 180.49 345.87 177.00 345.00
C 174.73 344.44 173.15 344.09 171.00 343.00
C 165.25 340.09 161.05 334.84 159.00 329.00
C 158.47 327.49 158.18 326.69 158.00 325.00
C 156.54 318.85 157.24 314.52 160.00 309.00
C 170.37 288.26 200.11 289.66 204.00 314.00
M 256.00 300.00 
C 257.17 296.75 256.59 293.46 262.00 295.00
C 262.00 311.67 262.00 328.33 262.00 345.00
C 257.73 346.27 254.80 343.23 256.00 339.00
C 255.43 337.63 256.99 334.41 254.00 335.00
C 240.79 355.96 213.18 342.43 213.00 320.00 C 212.82 297.57 240.29 283.05 254.00 304.00
C 256.53 304.63 255.90 301.47 256.00 300.00
M 307.00 327.00 
C 308.17 330.10 308.15 332.95 307.00 336.00
C 305.15 340.89 300.69 343.63 296.00 345.00
C 292.50 346.02 289.44 345.97 286.00 345.00
C 280.22 343.36 267.91 336.23 279.00 332.00
C 282.40 343.36 304.79 337.44 299.22 327.78 C 293.65 318.12 279.10 323.88 276.00 312.00
C 274.47 307.86 275.09 305.54 277.00 302.00
C 282.77 291.31 297.48 291.47 305.00 301.00
C 305.05 303.22 302.71 304.99 301.00 306.00
C 294.95 295.09 276.66 305.58 285.25 312.75 C 293.84 319.92 302.59 315.39 307.00 327.00
M 370.00 315.00 
C 369.29 318.80 369.94 323.51 371.00 327.00
C 375.85 337.62 390.25 342.74 399.00 333.00
C 411.39 340.58 390.49 346.78 382.00 345.00 C 373.51 343.22 362.89 334.99 363.00 325.00
C 362.27 321.21 362.23 317.74 363.00 314.00
C 364.31 307.68 366.91 302.54 372.25 298.25 C 377.58 293.96 386.68 293.99 392.22 294.78 C 397.76 295.56 406.80 302.60 401.75 305.75 C 396.69 308.89 390.01 299.02 383.00 302.00 C 375.99 304.98 372.43 307.53 370.00 315.00
M 442.00 295.00 
C 452.18 297.11 458.72 305.19 461.00 315.00
C 461.76 318.27 461.51 320.85 461.00 324.00
C 460.82 327.34 460.47 329.09 459.00 332.00
C 456.76 336.43 452.55 340.97 448.00 343.00
C 446.09 343.85 444.01 344.46 442.00 345.00
C 438.45 345.95 435.46 345.77 432.00 345.00
C 415.62 341.37 408.18 324.38 414.00 309.00
C 415.64 304.66 418.86 300.61 423.00 298.00
C 424.64 296.97 426.19 296.51 428.00 296.00
C 432.91 293.90 436.85 293.93 442.00 295.00
M 577.00 321.00 
C 574.77 327.11 564.45 323.05 559.00 324.00 C 553.55 324.95 543.84 323.29 538.00 324.00
C 535.96 327.26 542.69 332.69 545.08 334.92 C 547.47 337.15 557.02 339.83 560.22 337.22 C 563.43 334.61 572.50 333.51 571.92 338.08 C 571.35 342.64 562.86 344.22 560.00 345.00
C 556.45 345.96 553.46 345.77 550.00 345.00
C 540.35 342.86 533.38 335.59 531.00 326.00
C 530.06 322.19 530.28 318.72 531.00 315.00
C 532.04 301.96 544.77 293.03 556.67 294.33 C 568.57 295.63 581.64 308.26 577.00 321.00
M 332.00 360.00 
C 331.46 361.09 331.30 362.77 331.00 364.00
C 328.69 364.18 321.58 364.66 325.00 361.00
C 325.12 353.21 332.89 346.34 329.08 338.92 C 325.27 331.51 324.25 324.36 321.02 316.98 C 317.80 309.59 314.03 303.10 313.00 295.00
C 323.21 292.71 323.03 305.17 326.26 311.74 C 329.48 318.32 331.24 326.74 335.00 333.00
C 338.49 326.31 339.93 317.97 343.32 311.32 C 346.72 304.67 346.83 292.81 357.00 295.00
C 350.31 317.04 340.01 338.43 332.00 360.00
M 74.00 315.00 
C 76.93 316.52 77.27 324.53 72.92 324.92 C 68.56 325.30 61.77 325.19 57.78 324.22 C 53.79 323.25 54.07 314.63 58.08 315.08 C 62.09 315.53 70.41 313.14 74.00 315.00
M 140.00 324.00 
C 139.53 324.12 139.00 324.00 139.00 324.00
C 137.35 325.22 124.78 329.65 122.25 322.75 C 119.73 315.84 128.42 316.35 134.00 315.00 C 139.58 313.65 148.37 321.81 140.00 324.00
M 73.00 352.00 
C 72.60 352.20 72.00 352.00 72.00 352.00
C 65.58 357.14 64.58 345.37 69.25 342.25 C 73.92 339.13 79.90 331.85 82.92 338.08 C 85.94 344.31 76.46 350.30 73.00 352.00
M 121.00 336.00 
C 128.59 338.29 134.51 353.71 124.78 352.22 C 115.05 350.73 110.33 332.79 121.00 336.00
M 103.00 347.00 
C 104.84 350.34 104.38 356.69 103.00 360.00
C 101.17 364.39 96.62 365.76 94.00 361.00
C 92.34 357.99 91.17 345.55 96.00 344.00
C 98.96 343.05 101.64 344.54 103.00 347.00 Z"/>
</g>
<g fill="None" fill-opacity="0.0" stroke="#8CCAFF" stroke-opacity="1.00" stroke-width="0.3"><path d="
M 346.00 1.00 
C 345.96 1.00 346.00 0.00 346.00 0.00
L 336.00 0.00
C 338.35 1.80 342.83 1.00 346.00 1.00 Z"/>
</g>
<g fill="None" fill-opacity="0.0" stroke="#FDFEFE" stroke-opacity="1.00" stroke-width="0.3"><path d="
M 346.00 1.00 
C 383.91 1.00 422.34 17.11 455.77 30.23 C 489.21 43.34 510.22 65.44 539.00 86.00
C 545.60 90.71 551.80 97.92 557.00 104.00
C 579.27 130.06 596.93 154.73 610.70 186.31 C 624.46 217.88 639.00 257.99 639.00 294.00
C 639.00 293.96 640.00 294.00 640.00 294.00
L 640.00 0.00
L 346.00 0.00
C 346.00 0.00 345.96 1.00 346.00 1.00 Z"/>
</g>
<g fill="None" fill-opacity="0.0" stroke="#D8F4FE" stroke-opacity="1.00" stroke-width="0.3"><path d="
M 73.00 115.00 
C 82.35 103.62 94.38 92.62 105.00 82.00
C 93.90 91.48 80.72 103.04 73.00 115.00 Z"/>
</g>
<g fill="None" fill-opacity="0.0" stroke="#CBEEFF" stroke-opacity="1.00" stroke-width="0.3"><path d="
M 557.00 104.00 
C 551.80 97.92 545.60 90.71 539.00 86.00
C 545.12 91.13 551.27 98.27 557.00 104.00 Z"/>
</g>
<g fill="None" fill-opacity="0.0" stroke="#BADEFF" stroke-opacity="1.00" stroke-width="0.3"><path d="
M 512.00 268.00 
C 514.00 268.00 516.00 268.00 518.00 268.00
C 518.00 293.33 518.00 318.67 518.00 344.00
C 513.99 345.43 514.55 341.83 513.00 340.00
C 511.81 344.11 515.49 345.91 519.00 345.00
C 519.00 319.00 519.00 293.00 519.00 267.00
C 516.61 267.24 513.71 266.29 512.00 268.00 Z"/>
</g>
<g fill="None" fill-opacity="0.0" stroke="#629CE7" stroke-opacity="1.00" stroke-width="0.3"><path d="
M 505.00 297.00 
C 507.45 298.91 508.93 302.77 512.00 304.00
C 512.00 292.00 512.00 280.00 512.00 268.00
C 509.67 278.34 511.66 290.83 511.00 302.00
C 508.79 300.71 507.18 298.45 505.00 297.00 Z"/>
</g>
<g fill="None" fill-opacity="0.0" stroke="#F1FAFA" stroke-opacity="1.00" stroke-width="0.3"><path d="
M 505.00 297.00 
C 489.07 286.40 473.44 300.19 470.00 315.00
C 469.66 318.05 469.64 321.95 470.00 325.00
C 471.20 344.64 501.91 353.41 511.00 335.00
C 514.19 334.59 512.52 338.28 513.00 340.00
C 514.55 341.83 513.99 345.43 518.00 344.00
C 518.00 318.67 518.00 293.33 518.00 268.00
C 516.00 268.00 514.00 268.00 512.00 268.00
C 512.00 280.00 512.00 292.00 512.00 304.00
C 508.93 302.77 507.45 298.91 505.00 297.00
M 497.00 338.00 
C 493.09 338.87 491.62 338.93 488.00 337.00
C 484.62 335.19 482.41 332.94 480.00 330.00
C 475.63 324.68 474.98 319.10 478.00 313.00
C 483.92 301.02 498.80 296.46 508.25 307.75 C 517.70 319.05 509.67 335.19 497.00 338.00 Z"/>
</g>
<g fill="None" fill-opacity="0.0" stroke="#6CA8F1" stroke-opacity="1.00" stroke-width="0.3"><path d="
M 94.00 293.00 
C 94.00 289.29 92.09 277.52 97.00 276.00
C 91.38 277.09 91.75 289.96 94.00 293.00 Z"/>
</g>
<g fill="None" fill-opacity="0.0" stroke="#EFFAF9" stroke-opacity="1.00" stroke-width="0.3"><path d="
M 94.00 293.00 
C 94.00 293.00 93.88 293.53 94.00 294.00
C 101.19 304.25 104.71 283.69 103.00 279.00
C 101.72 276.68 99.81 275.45 97.00 276.00
C 92.09 277.52 94.00 289.29 94.00 293.00 Z"/>
</g>
<g fill="None" fill-opacity="0.0" stroke="#5996E3" stroke-opacity="1.00" stroke-width="0.3"><path d="
M 94.00 294.00 
C 95.23 298.71 102.53 297.55 103.22 293.22 C 103.91 288.89 105.15 282.90 103.00 279.00
C 104.71 283.69 101.19 304.25 94.00 294.00 Z"/>
</g>
<g fill="None" fill-opacity="0.0" stroke="#93C2F9" stroke-opacity="1.00" stroke-width="0.3"><path d="
M 114.00 298.00 
C 115.05 294.07 127.56 285.04 130.25 289.75 C 132.93 294.47 121.48 305.13 117.00 304.00
C 120.75 305.82 134.23 295.86 131.25 289.75 C 128.26 283.65 115.09 292.37 114.00 298.00 Z"/>
</g>
<g fill="None" fill-opacity="0.0" stroke="#F3FBFA" stroke-opacity="1.00" stroke-width="0.3"><path d="
M 114.00 298.00 
C 113.48 300.70 114.59 302.83 117.00 304.00
C 121.48 305.13 132.93 294.47 130.25 289.75 C 127.56 285.04 115.05 294.07 114.00 298.00 Z"/>
</g>
<g fill="None" fill-opacity="0.0" stroke="#C9F2FF" stroke-opacity="1.00" stroke-width="0.3"><path d="
M 0.00 298.00 
C 0.50 298.00 1.00 298.00 1.00 298.00
C 1.00 295.04 0.72 291.94 1.00 289.00
C 1.00 289.00 0.50 289.00 0.00 289.00
L 0.00 298.00 Z"/>
</g>
<g fill="None" fill-opacity="0.0" stroke="#EFF8FA" stroke-opacity="1.00" stroke-width="0.3"><path d="
M 160.00 309.00 
C 158.18 313.93 157.42 319.46 158.00 325.00
C 158.18 326.69 158.47 327.49 159.00 329.00
C 161.27 333.83 166.43 340.08 171.00 343.00
C 173.15 344.09 174.73 344.44 177.00 345.00
C 180.05 345.38 183.94 345.31 187.00 345.00
C 193.02 344.68 204.12 339.69 197.00 333.00
C 193.42 335.07 190.11 336.98 186.00 338.00
C 181.76 339.05 179.89 338.78 176.00 337.00
C 171.93 335.14 166.47 332.32 166.00 327.00
C 165.37 325.63 162.61 324.49 164.00 322.00
C 171.42 322.01 180.78 321.99 188.00 322.00 C 195.22 322.01 205.45 324.07 204.00 314.00
C 200.11 289.66 170.37 288.26 160.00 309.00
M 197.00 312.00 
C 197.33 313.21 198.77 315.14 198.00 317.00
C 187.17 316.33 175.01 318.33 165.00 316.00
C 162.48 312.12 169.39 307.08 172.25 304.25 C 175.11 301.41 182.54 300.30 187.02 301.98 C 191.50 303.65 195.65 307.00 197.00 312.00 Z"/>
</g>
<g fill="None" fill-opacity="0.0" stroke="#ECF7FA" stroke-opacity="1.00" stroke-width="0.3"><path d="
M 256.00 339.00 
C 256.96 341.31 256.85 345.30 261.00 344.00
C 261.00 328.00 261.00 312.00 261.00 296.00
C 257.55 294.86 257.49 298.57 256.00 300.00
C 255.90 301.47 256.53 304.63 254.00 304.00
C 240.29 283.05 212.82 297.57 213.00 320.00 C 213.18 342.43 240.79 355.96 254.00 335.00
C 256.99 334.41 255.43 337.63 256.00 339.00
M 242.00 302.00 
C 261.20 306.76 258.21 337.51 238.00 338.00 C 217.79 338.48 213.43 308.44 232.00 302.00
C 235.49 300.79 238.61 301.16 242.00 302.00 Z"/>
</g>
<g fill="None" fill-opacity="0.0" stroke="#ECF7FA" stroke-opacity="1.00" stroke-width="0.3"><path d="
M 277.00 302.00 
C 275.97 304.83 275.30 308.85 276.00 312.00
C 279.10 323.88 293.65 318.12 299.22 327.78 C 304.79 337.44 282.40 343.36 279.00 332.00
C 267.91 336.23 280.22 343.36 286.00 345.00
C 288.85 345.43 293.15 345.45 296.00 345.00
C 300.69 343.63 305.15 340.89 307.00 336.00
C 307.50 333.81 307.50 329.19 307.00 327.00
C 302.59 315.39 293.84 319.92 285.25 312.75 C 276.66 305.58 294.95 295.09 301.00 306.00
C 302.71 304.99 305.05 303.22 305.00 301.00
C 297.48 291.47 282.77 291.31 277.00 302.00 Z"/>
</g>
<g fill="None" fill-opacity="0.0" stroke="#E9F6FA" stroke-opacity="1.00" stroke-width="0.3"><path d="
M 363.00 314.00 
C 362.68 317.49 362.72 321.51 363.00 325.00
C 362.89 334.99 373.51 343.22 382.00 345.00 C 390.49 346.78 411.39 340.58 399.00 333.00
C 390.25 342.74 375.85 337.62 371.00 327.00
C 369.07 322.78 368.53 319.52 370.00 315.00
C 372.43 307.53 375.99 304.98 383.00 302.00 C 390.01 299.02 396.69 308.89 401.75 305.75 C 406.80 302.60 397.76 295.56 392.22 294.78 C 386.68 293.99 377.58 293.96 372.25 298.25 C 366.91 302.54 364.31 307.68 363.00 314.00 Z"/>
</g>
<g fill="None" fill-opacity="0.0" stroke="#A8CEF8" stroke-opacity="1.00" stroke-width="0.3"><path d="
M 428.00 296.00 
C 432.26 294.79 437.38 294.58 442.00 295.00
C 436.85 293.93 432.91 293.90 428.00 296.00 Z"/>
</g>
<g fill="None" fill-opacity="0.0" stroke="#EDF8FA" stroke-opacity="1.00" stroke-width="0.3"><path d="
M 531.00 315.00 
C 530.73 318.43 530.58 322.59 531.00 326.00
C 533.38 335.59 540.35 342.86 550.00 345.00
C 553.02 345.31 556.99 345.43 560.00 345.00
C 562.86 344.22 571.35 342.64 571.92 338.08 C 572.50 333.51 563.43 334.61 560.22 337.22 C 557.02 339.83 547.47 337.15 545.08 334.92 C 542.69 332.69 535.96 327.26 538.00 324.00
C 540.63 319.80 553.72 324.97 558.00 323.00 C 562.28 321.03 574.24 326.34 577.00 321.00
C 581.64 308.26 568.57 295.63 556.67 294.33 C 544.77 293.03 532.04 301.96 531.00 315.00
M 570.00 313.00 
C 570.17 313.82 571.85 315.52 571.00 317.00
C 559.67 317.00 548.33 317.00 537.00 317.00
C 537.11 316.00 536.53 314.27 538.00 314.00
C 539.34 297.40 566.83 297.37 570.00 313.00 Z"/>
</g>
<g fill="None" fill-opacity="0.0" stroke="#80C5FF" stroke-opacity="1.00" stroke-width="0.3"><path d="
M 640.00 306.00 
L 640.00 294.00
C 640.00 294.00 639.00 293.96 639.00 294.00
C 639.00 297.84 638.23 302.91 640.00 306.00 Z"/>
</g>
<g fill="None" fill-opacity="0.0" stroke="#B7DBFD" stroke-opacity="1.00" stroke-width="0.3"><path d="
M 256.00 300.00 
C 257.49 298.57 257.55 294.86 261.00 296.00
C 261.00 312.00 261.00 328.00 261.00 344.00
C 256.85 345.30 256.96 341.31 256.00 339.00
C 254.80 343.23 257.73 346.27 262.00 345.00
C 262.00 328.33 262.00 311.67 262.00 295.00
C 256.59 293.46 257.17 296.75 256.00 300.00 Z"/>
</g>
<g fill="None" fill-opacity="0.0" stroke="#E4F3FA" stroke-opacity="1.00" stroke-width="0.3"><path d="
M 325.00 361.00 
C 326.50 364.94 330.22 362.51 332.00 360.00
C 340.01 338.43 350.31 317.04 357.00 295.00
C 346.83 292.81 346.72 304.67 343.32 311.32 C 339.93 317.97 338.49 326.31 335.00 333.00
C 331.24 326.74 329.48 318.32 326.26 311.74 C 323.03 305.17 323.21 292.71 313.00 295.00
C 314.03 303.10 317.80 309.59 321.02 316.98 C 324.25 324.36 325.27 331.51 329.08 338.92 C 332.89 346.34 325.12 353.21 325.00 361.00 Z"/>
</g>
<g fill="None" fill-opacity="0.0" stroke="#EDF8F9" stroke-opacity="1.00" stroke-width="0.3"><path d="
M 428.00 296.00 
C 426.19 296.51 424.64 296.97 423.00 298.00
C 419.85 300.33 415.52 305.78 414.00 309.00
C 408.18 324.38 415.62 341.37 432.00 345.00
C 435.03 345.31 438.99 345.42 442.00 345.00
C 444.01 344.46 446.09 343.85 448.00 343.00
C 451.51 341.00 456.86 335.35 459.00 332.00
C 460.47 329.09 460.82 327.34 461.00 324.00
C 461.16 321.13 461.32 317.85 461.00 315.00
C 458.72 305.19 452.18 297.11 442.00 295.00
C 437.38 294.58 432.26 294.79 428.00 296.00
M 442.00 302.00 
C 460.90 309.15 456.47 339.10 436.00 338.00 C 415.53 336.90 413.09 307.12 432.00 302.00
C 435.40 301.08 438.62 300.72 442.00 302.00 Z"/>
</g>
<g fill="None" fill-opacity="0.0" stroke="#4EA2FD" stroke-opacity="1.00" stroke-width="0.3"><path d="
M 0.00 312.00 
C 1.82 308.33 1.00 302.50 1.00 298.00
C 1.00 298.00 0.50 298.00 0.00 298.00
L 0.00 312.00 Z"/>
</g>
<g fill="None" fill-opacity="0.0" stroke="#92C1F5" stroke-opacity="1.00" stroke-width="0.3"><path d="
M 414.00 309.00 
C 415.52 305.78 419.85 300.33 423.00 298.00
C 418.86 300.61 415.64 304.66 414.00 309.00 Z"/>
</g>
<g fill="None" fill-opacity="0.0" stroke="#186DEF" stroke-opacity="1.00" stroke-width="0.3"><path d="
M 165.00 316.00 
C 175.67 316.00 186.33 316.00 197.00 316.00
C 197.00 314.67 197.00 313.33 197.00 312.00
C 195.65 307.00 191.50 303.65 187.02 301.98 C 182.54 300.30 175.11 301.41 172.25 304.25 C 169.39 307.08 162.48 312.12 165.00 316.00 Z"/>
</g>
<g fill="None" fill-opacity="0.0" stroke="#80AEEC" stroke-opacity="1.00" stroke-width="0.3"><path d="
M 232.00 302.00 
C 234.78 301.43 239.18 301.65 242.00 302.00
C 238.61 301.16 235.49 300.79 232.00 302.00 Z"/>
</g>
<g fill="None" fill-opacity="0.0" stroke="#8BB7EA" stroke-opacity="1.00" stroke-width="0.3"><path d="
M 432.00 302.00 
C 434.70 301.61 439.34 301.39 442.00 302.00
C 438.62 300.72 435.40 301.08 432.00 302.00 Z"/>
</g>
<g fill="None" fill-opacity="0.0" stroke="#106AF4" stroke-opacity="1.00" stroke-width="0.3"><path d="
M 478.00 313.00 
C 476.23 318.52 476.97 325.05 480.00 330.00
C 482.41 332.94 484.62 335.19 488.00 337.00
C 490.74 338.00 493.93 338.25 497.00 338.00
C 509.67 335.19 517.70 319.05 508.25 307.75 C 498.80 296.46 483.92 301.02 478.00 313.00 Z"/>
</g>
<g fill="None" fill-opacity="0.0" stroke="#176CF0" stroke-opacity="1.00" stroke-width="0.3"><path d="
M 538.00 314.00 
C 539.53 318.29 548.42 315.27 553.00 316.00 C 557.58 316.73 565.15 315.45 570.00 316.00
C 570.00 315.00 570.00 314.00 570.00 313.00
C 566.83 297.37 539.34 297.40 538.00 314.00 Z"/>
</g>
<g fill="None" fill-opacity="0.0" stroke="#0E6AF4" stroke-opacity="1.00" stroke-width="0.3"><path d="
M 242.00 302.00 
C 239.18 301.65 234.78 301.43 232.00 302.00
C 213.43 308.44 217.79 338.48 238.00 338.00 C 258.21 337.51 261.20 306.76 242.00 302.00 Z"/>
</g>
<g fill="None" fill-opacity="0.0" stroke="#80B6F8" stroke-opacity="1.00" stroke-width="0.3"><path d="
M 276.00 312.00 
C 275.30 308.85 275.97 304.83 277.00 302.00
C 275.09 305.54 274.47 307.86 276.00 312.00 Z"/>
</g>
<g fill="None" fill-opacity="0.0" stroke="#116BF5" stroke-opacity="1.00" stroke-width="0.3"><path d="
M 442.00 302.00 
C 439.34 301.39 434.70 301.61 432.00 302.00
C 413.09 307.12 415.53 336.90 436.00 338.00 C 456.47 339.10 460.90 309.15 442.00 302.00 Z"/>
</g>
<g fill="None" fill-opacity="0.0" stroke="#75AAEF" stroke-opacity="1.00" stroke-width="0.3"><path d="
M 158.00 325.00 
C 157.42 319.46 158.18 313.93 160.00 309.00
C 157.24 314.52 156.54 318.85 158.00 325.00 Z"/>
</g>
<g fill="None" fill-opacity="0.0" stroke="#BEE0FD" stroke-opacity="1.00" stroke-width="0.3"><path d="
M 165.00 316.00 
C 175.01 318.33 187.17 316.33 198.00 317.00
C 198.77 315.14 197.33 313.21 197.00 312.00
C 197.00 313.33 197.00 314.67 197.00 316.00
C 186.33 316.00 175.67 316.00 165.00 316.00 Z"/>
</g>
<g fill="None" fill-opacity="0.0" stroke="#A3CFF6" stroke-opacity="1.00" stroke-width="0.3"><path d="
M 480.00 330.00 
C 476.97 325.05 476.23 318.52 478.00 313.00
C 474.98 319.10 475.63 324.68 480.00 330.00 Z"/>
</g>
<g fill="None" fill-opacity="0.0" stroke="#C5E4FD" stroke-opacity="1.00" stroke-width="0.3"><path d="
M 538.00 314.00 
C 536.53 314.27 537.11 316.00 537.00 317.00
C 548.33 317.00 559.67 317.00 571.00 317.00
C 571.85 315.52 570.17 313.82 570.00 313.00
C 570.00 314.00 570.00 315.00 570.00 316.00
C 565.15 315.45 557.58 316.73 553.00 316.00 C 548.42 315.27 539.53 318.29 538.00 314.00 Z"/>
</g>
<g fill="None" fill-opacity="0.0" stroke="#CBEDFE" stroke-opacity="1.00" stroke-width="0.3"><path d="
M 166.00 327.00 
C 165.96 326.50 166.19 325.41 166.00 325.00
C 164.32 321.38 177.77 323.94 182.00 323.00 C 186.23 322.06 197.55 324.72 202.00 323.00
C 205.97 320.69 204.51 317.17 204.00 314.00
C 205.45 324.07 195.22 322.01 188.00 322.00 C 180.78 321.99 171.42 322.01 164.00 322.00
C 162.61 324.49 165.37 325.63 166.00 327.00 Z"/>
</g>
<g fill="None" fill-opacity="0.0" stroke="#B6DAFD" stroke-opacity="1.00" stroke-width="0.3"><path d="
M 363.00 325.00 
C 362.72 321.51 362.68 317.49 363.00 314.00
C 362.23 317.74 362.27 321.21 363.00 325.00 Z"/>
</g>
<g fill="None" fill-opacity="0.0" stroke="#97C9FB" stroke-opacity="1.00" stroke-width="0.3"><path d="
M 74.00 315.00 
C 70.41 313.14 62.09 315.53 58.08 315.08 C 54.07 314.63 53.79 323.25 57.78 324.22 C 61.77 325.19 68.56 325.30 72.92 324.92 C 77.27 324.53 76.93 316.52 74.00 315.00
M 73.00 316.00 
C 75.73 317.41 75.83 323.67 71.92 323.92 C 68.01 324.17 62.09 324.18 58.33 323.67 C 54.57 323.16 55.64 315.51 59.08 316.08 C 62.53 316.65 69.83 314.36 73.00 316.00 Z"/>
</g>
<g fill="None" fill-opacity="0.0" stroke="#9CCCFC" stroke-opacity="1.00" stroke-width="0.3"><path d="
M 139.00 324.00 
C 134.33 324.00 127.32 327.41 123.75 322.25 C 120.19 317.08 129.98 316.11 134.00 316.00 C 138.02 315.89 146.69 319.31 140.00 324.00
C 148.37 321.81 139.58 313.65 134.00 315.00 C 128.42 316.35 119.73 315.84 122.25 322.75 C 124.78 329.65 137.35 325.22 139.00 324.00 Z"/>
</g>
<g fill="None" fill-opacity="0.0" stroke="#8FB7EA" stroke-opacity="1.00" stroke-width="0.3"><path d="
M 371.00 327.00 
C 369.94 323.51 369.29 318.80 370.00 315.00
C 368.53 319.52 369.07 322.78 371.00 327.00 Z"/>
</g>
<g fill="None" fill-opacity="0.0" stroke="#8DB8F5" stroke-opacity="1.00" stroke-width="0.3"><path d="
M 461.00 324.00 
C 461.51 320.85 461.76 318.27 461.00 315.00
C 461.32 317.85 461.16 321.13 461.00 324.00 Z"/>
</g>
<g fill="None" fill-opacity="0.0" stroke="#629CF2" stroke-opacity="1.00" stroke-width="0.3"><path d="
M 470.00 325.00 
C 469.64 321.95 469.66 318.05 470.00 315.00
C 469.19 318.48 469.15 321.46 470.00 325.00 Z"/>
</g>
<g fill="None" fill-opacity="0.0" stroke="#9CC7F4" stroke-opacity="1.00" stroke-width="0.3"><path d="
M 531.00 326.00 
C 530.58 322.59 530.73 318.43 531.00 315.00
C 530.28 318.72 530.06 322.19 531.00 326.00 Z"/>
</g>
<g fill="None" fill-opacity="0.0" stroke="#F6FCF8" stroke-opacity="1.00" stroke-width="0.3"><path d="
M 73.00 316.00 
C 69.83 314.36 62.53 316.65 59.08 316.08 C 55.64 315.51 54.57 323.16 58.33 323.67 C 62.09 324.18 68.01 324.17 71.92 323.92 C 75.83 323.67 75.73 317.41 73.00 316.00 Z"/>
</g>
<g fill="None" fill-opacity="0.0" stroke="#F6FCF7" stroke-opacity="1.00" stroke-width="0.3"><path d="
M 139.00 324.00 
C 139.00 324.00 139.53 324.12 140.00 324.00
C 146.69 319.31 138.02 315.89 134.00 316.00 C 129.98 316.11 120.19 317.08 123.75 322.25 C 127.32 327.41 134.33 324.00 139.00 324.00 Z"/>
</g>
<g fill="None" fill-opacity="0.0" stroke="#4983D1" stroke-opacity="1.00" stroke-width="0.3"><path d="
M 538.00 324.00 
C 543.84 323.29 553.55 324.95 559.00 324.00 C 564.45 323.05 574.77 327.11 577.00 321.00
C 574.24 326.34 562.28 321.03 558.00 323.00 C 553.72 324.97 540.63 319.80 538.00 324.00 Z"/>
</g>
<g fill="None" fill-opacity="0.0" stroke="#4782CE" stroke-opacity="1.00" stroke-width="0.3"><path d="
M 166.00 325.00 
C 168.50 321.16 179.39 325.30 184.00 324.00 C 188.61 322.70 197.68 325.51 202.00 323.00
C 197.55 324.72 186.23 322.06 182.00 323.00 C 177.77 323.94 164.32 321.38 166.00 325.00 Z"/>
</g>
<g fill="None" fill-opacity="0.0" stroke="#8DBCF1" stroke-opacity="1.00" stroke-width="0.3"><path d="
M 307.00 336.00 
C 308.15 332.95 308.17 330.10 307.00 327.00
C 307.50 329.19 307.50 333.81 307.00 336.00 Z"/>
</g>
<g fill="None" fill-opacity="0.0" stroke="#9BCAF8" stroke-opacity="1.00" stroke-width="0.3"><path d="
M 171.00 343.00 
C 166.43 340.08 161.27 333.83 159.00 329.00
C 161.05 334.84 165.25 340.09 171.00 343.00 Z"/>
</g>
<g fill="None" fill-opacity="0.0" stroke="#68B2FF" stroke-opacity="1.00" stroke-width="0.3"><path d="
M 0.00 345.00 
C 0.50 345.00 1.00 345.00 1.00 345.00
C 0.74 340.14 1.99 334.10 0.00 330.00
L 0.00 345.00 Z"/>
</g>
<g fill="None" fill-opacity="0.0" stroke="#A4D3FB" stroke-opacity="1.00" stroke-width="0.3"><path d="
M 448.00 343.00 
C 452.55 340.97 456.76 336.43 459.00 332.00
C 456.86 335.35 451.51 341.00 448.00 343.00 Z"/>
</g>
<g fill="None" fill-opacity="0.0" stroke="#6EB8FF" stroke-opacity="1.00" stroke-width="0.3"><path d="
M 639.00 344.00 
C 639.00 343.96 640.00 344.00 640.00 344.00
L 640.00 333.00
C 638.19 335.68 639.00 340.50 639.00 344.00 Z"/>
</g>
<g fill="None" fill-opacity="0.0" stroke="#92C3FB" stroke-opacity="1.00" stroke-width="0.3"><path d="
M 72.00 352.00 
C 62.42 352.86 67.72 345.50 70.75 341.75 C 73.78 338.00 81.52 333.57 81.97 340.03 C 82.43 346.49 76.07 347.61 73.00 352.00
C 76.46 350.30 85.94 344.31 82.92 338.08 C 79.90 331.85 73.92 339.13 69.25 342.25 C 64.58 345.37 65.58 357.14 72.00 352.00 Z"/>
</g>
<g fill="None" fill-opacity="0.0" stroke="#F4FCF9" stroke-opacity="1.00" stroke-width="0.3"><path d="
M 72.00 352.00 
C 72.00 352.00 72.60 352.20 73.00 352.00
C 76.07 347.61 82.43 346.49 81.97 340.03 C 81.52 333.57 73.78 338.00 70.75 341.75 C 67.72 345.50 62.42 352.86 72.00 352.00 Z"/>
</g>
<g fill="None" fill-opacity="0.0" stroke="#EBF8FA" stroke-opacity="1.00" stroke-width="0.3"><path d="
M 121.00 336.00 
C 110.33 332.79 115.05 350.73 124.78 352.22 C 134.51 353.71 128.59 338.29 121.00 336.00 Z"/>
</g>
<g fill="None" fill-opacity="0.0" stroke="#A9CDFD" stroke-opacity="1.00" stroke-width="0.3"><path d="
M 186.00 338.00 
C 182.61 338.42 179.06 337.93 176.00 337.00
C 179.89 338.78 181.76 339.05 186.00 338.00 Z"/>
</g>
<g fill="None" fill-opacity="0.0" stroke="#B5DBFE" stroke-opacity="1.00" stroke-width="0.3"><path d="
M 497.00 338.00 
C 493.93 338.25 490.74 338.00 488.00 337.00
C 491.62 338.93 493.09 338.87 497.00 338.00 Z"/>
</g>
<g fill="None" fill-opacity="0.0" stroke="#64A2ED" stroke-opacity="1.00" stroke-width="0.3"><path d="
M 94.00 361.00 
C 93.03 358.33 92.99 345.45 96.00 344.00
C 91.17 345.55 92.34 357.99 94.00 361.00 Z"/>
</g>
<g fill="None" fill-opacity="0.0" stroke="#EFFAF9" stroke-opacity="1.00" stroke-width="0.3"><path d="
M 94.00 361.00 
C 96.62 365.76 101.17 364.39 103.00 360.00
C 103.68 357.38 103.92 349.53 103.00 347.00
C 101.64 344.54 98.96 343.05 96.00 344.00
C 92.99 345.45 93.03 358.33 94.00 361.00 Z"/>
</g>
<g fill="None" fill-opacity="0.0" stroke="#FDFEFE" stroke-opacity="1.00" stroke-width="0.3"><path d="
M 610.00 456.00 
C 608.22 460.83 605.49 464.81 603.00 469.00
C 591.27 493.81 574.12 514.79 556.00 536.00
C 552.48 541.45 545.04 548.84 539.00 554.00
C 482.92 601.92 418.33 634.96 344.00 639.00
C 343.99 639.00 344.00 640.00 344.00 640.00
L 640.00 640.00
L 640.00 344.00
C 640.00 344.00 639.00 343.96 639.00 344.00
C 639.00 384.07 623.34 419.86 610.00 456.00 Z"/>
</g>
<g fill="None" fill-opacity="0.0" stroke="#FDFEFE" stroke-opacity="1.00" stroke-width="0.3"><path d="
M 0.00 640.00 
L 294.00 640.00
C 294.00 639.50 294.00 639.00 294.00 639.00
C 254.13 635.84 220.49 623.47 184.00 610.00
C 179.17 608.22 175.19 605.49 171.00 603.00
C 145.34 590.87 123.01 572.80 101.00 554.00
C 95.68 549.45 90.50 544.27 86.00 539.00
C 84.08 536.75 81.96 534.30 80.00 532.00
C 76.96 528.96 74.41 526.51 72.00 523.00
C 53.81 496.48 37.08 475.31 24.98 445.02 C 12.87 414.74 2.83 378.80 1.00 345.00
C 1.00 345.00 0.50 345.00 0.00 345.00
L 0.00 640.00 Z"/>
</g>
<g fill="None" fill-opacity="0.0" stroke="#77A9E8" stroke-opacity="1.00" stroke-width="0.3"><path d="
M 187.00 345.00 
C 183.94 345.31 180.05 345.38 177.00 345.00
C 180.49 345.87 183.47 345.78 187.00 345.00 Z"/>
</g>
<g fill="None" fill-opacity="0.0" stroke="#73ADEB" stroke-opacity="1.00" stroke-width="0.3"><path d="
M 296.00 345.00 
C 293.15 345.45 288.85 345.43 286.00 345.00
C 289.44 345.97 292.50 346.02 296.00 345.00 Z"/>
</g>
<g fill="None" fill-opacity="0.0" stroke="#7FAAEC" stroke-opacity="1.00" stroke-width="0.3"><path d="
M 442.00 345.00 
C 438.99 345.42 435.03 345.31 432.00 345.00
C 435.46 345.77 438.45 345.95 442.00 345.00 Z"/>
</g>
<g fill="None" fill-opacity="0.0" stroke="#7AA9EB" stroke-opacity="1.00" stroke-width="0.3"><path d="
M 560.00 345.00 
C 556.99 345.43 553.02 345.31 550.00 345.00
C 553.46 345.77 556.45 345.96 560.00 345.00 Z"/>
</g>
<g fill="None" fill-opacity="0.0" stroke="#4C88D7" stroke-opacity="1.00" stroke-width="0.3"><path d="
M 103.00 360.00 
C 104.38 356.69 104.84 350.34 103.00 347.00
C 103.92 349.53 103.68 357.38 103.00 360.00 Z"/>
</g>
<g fill="None" fill-opacity="0.0" stroke="#AAD3FD" stroke-opacity="1.00" stroke-width="0.3"><path d="
M 325.00 361.00 
C 321.58 364.66 328.69 364.18 331.00 364.00
C 331.30 362.77 331.46 361.09 332.00 360.00
C 330.22 362.51 326.50 364.94 325.00 361.00 Z"/>
</g>
<g fill="None" fill-opacity="0.0" stroke="#97C3F3" stroke-opacity="1.00" stroke-width="0.3"><path d="
M 603.00 469.00 
C 605.49 464.81 608.22 460.83 610.00 456.00
C 607.90 460.15 605.11 464.54 603.00 469.00 Z"/>
</g>
<g fill="None" fill-opacity="0.0" stroke="#C1E7FD" stroke-opacity="1.00" stroke-width="0.3"><path d="
M 80.00 532.00 
C 77.36 528.91 74.74 525.96 72.00 523.00
C 74.41 526.51 76.96 528.96 80.00 532.00 Z"/>
</g>
<g fill="None" fill-opacity="0.0" stroke="#CBEEFF" stroke-opacity="1.00" stroke-width="0.3"><path d="
M 539.00 554.00 
C 545.04 548.84 552.48 541.45 556.00 536.00
C 550.79 542.10 544.72 548.28 539.00 554.00 Z"/>
</g>
<g fill="None" fill-opacity="0.0" stroke="#CAECFF" stroke-opacity="1.00" stroke-width="0.3"><path d="
M 101.00 554.00 
C 96.13 549.13 90.92 543.92 86.00 539.00
C 90.50 544.27 95.68 549.45 101.00 554.00 Z"/>
</g>
<g fill="None" fill-opacity="0.0" stroke="#98C3F3" stroke-opacity="1.00" stroke-width="0.3"><path d="
M 184.00 610.00 
C 179.85 607.90 175.46 605.11 171.00 603.00
C 175.19 605.49 179.17 608.22 184.00 610.00 Z"/>
</g>
<g fill="None" fill-opacity="0.0" stroke="#62B0FD" stroke-opacity="1.00" stroke-width="0.3"><path d="
M 294.00 640.00 
L 312.00 640.00
C 306.98 637.82 299.85 639.46 294.00 639.00
C 294.00 639.00 294.00 639.50 294.00 640.00 Z"/>
</g>
<g fill="None" fill-opacity="0.0" stroke="#6FB6FF" stroke-opacity="1.00" stroke-width="0.3"><path d="
M 333.00 640.00 
L 344.00 640.00
C 344.00 640.00 343.99 639.00 344.00 639.00
C 340.47 639.19 335.77 638.10 333.00 640.00 Z"/>
</g>
<g fill="#FDFEFE" fill-opacity="1.00" stroke="None">
<path d="
M 0.00 289.00 
C 0.50 289.00 1.00 289.00 1.00 289.00
C 4.09 256.04 14.93 221.70 26.92 191.92 C 38.91 162.14 55.94 141.44 73.00 115.00
C 80.72 103.04 93.90 91.48 105.00 82.00
C 158.77 36.05 224.95 4.86 296.00 1.00
C 296.01 1.00 296.00 0.00 296.00 0.00
L 0.00 0.00
L 0.00 289.00 Z"/>
</g>
<g fill="#69B5FD" fill-opacity="1.00" stroke="None">
<path d="
M 296.00 1.00 
C 299.86 0.79 304.97 1.97 308.00 0.00
L 296.00 0.00
C 296.00 0.00 296.01 1.00 296.00 1.00 Z"/>
</g>
<g fill="#0268FD" fill-opacity="1.00" stroke="None">
<path d="
M 296.00 1.00 
C 224.95 4.86 158.77 36.05 105.00 82.00
C 94.38 92.62 82.35 103.62 73.00 115.00
C 55.94 141.44 38.91 162.14 26.92 191.92 C 14.93 221.70 4.09 256.04 1.00 289.00
C 0.72 291.94 1.00 295.04 1.00 298.00
C 1.00 302.50 1.82 308.33 0.00 312.00
L 0.00 330.00
C 1.99 334.10 0.74 340.14 1.00 345.00
C 2.83 378.80 12.87 414.74 24.98 445.02 C 37.08 475.31 53.81 496.48 72.00 523.00
C 74.74 525.96 77.36 528.91 80.00 532.00
C 81.96 534.30 84.08 536.75 86.00 539.00
C 90.92 543.92 96.13 549.13 101.00 554.00
C 123.01 572.80 145.34 590.87 171.00 603.00
C 175.46 605.11 179.85 607.90 184.00 610.00
C 220.49 623.47 254.13 635.84 294.00 639.00
C 299.85 639.46 306.98 637.82 312.00 640.00
L 333.00 640.00
C 335.77 638.10 340.47 639.19 344.00 639.00
C 418.33 634.96 482.92 601.92 539.00 554.00
C 544.72 548.28 550.79 542.10 556.00 536.00
C 574.12 514.79 591.27 493.81 603.00 469.00
C 605.11 464.54 607.90 460.15 610.00 456.00
C 623.34 419.86 639.00 384.07 639.00 344.00
C 639.00 340.50 638.19 335.68 640.00 333.00
L 640.00 306.00
C 638.23 302.91 639.00 297.84 639.00 294.00
C 639.00 257.99 624.46 217.88 610.70 186.31 C 596.93 154.73 579.27 130.06 557.00 104.00
C 551.27 98.27 545.12 91.13 539.00 86.00
C 510.22 65.44 489.21 43.34 455.77 30.23 C 422.34 17.11 383.91 1.00 346.00 1.00
C 342.83 1.00 338.35 1.80 336.00 0.00
L 308.00 0.00
C 304.97 1.97 299.86 0.79 296.00 1.00
M 513.00 340.00 
C 512.52 338.28 514.19 334.59 511.00 335.00
C 501.91 353.41 471.20 344.64 470.00 325.00
C 469.15 321.46 469.19 318.48 470.00 315.00
C 473.44 300.19 489.07 286.40 505.00 297.00
C 507.18 298.45 508.79 300.71 511.00 302.00
C 511.66 290.83 509.67 278.34 512.00 268.00
C 513.71 266.29 516.61 267.24 519.00 267.00
C 519.00 293.00 519.00 319.00 519.00 345.00
C 515.49 345.91 511.81 344.11 513.00 340.00
M 103.00 279.00 
C 105.15 282.90 103.91 288.89 103.22 293.22 C 102.53 297.55 95.23 298.71 94.00 294.00
C 93.88 293.53 94.00 293.00 94.00 293.00
C 91.75 289.96 91.38 277.09 97.00 276.00
C 99.81 275.45 101.72 276.68 103.00 279.00
M 117.00 304.00 
C 114.59 302.83 113.48 300.70 114.00 298.00
C 115.09 292.37 128.26 283.65 131.25 289.75 C 134.23 295.86 120.75 305.82 117.00 304.00
M 204.00 314.00 
C 204.51 317.17 205.97 320.69 202.00 323.00
C 197.68 325.51 188.61 322.70 184.00 324.00 C 179.39 325.30 168.50 321.16 166.00 325.00
C 166.19 325.41 165.96 326.50 166.00 327.00
C 166.47 332.32 171.93 335.14 176.00 337.00
C 179.06 337.93 182.61 338.42 186.00 338.00
C 190.11 336.98 193.42 335.07 197.00 333.00
C 204.12 339.69 193.02 344.68 187.00 345.00
C 183.47 345.78 180.49 345.87 177.00 345.00
C 174.73 344.44 173.15 344.09 171.00 343.00
C 165.25 340.09 161.05 334.84 159.00 329.00
C 158.47 327.49 158.18 326.69 158.00 325.00
C 156.54 318.85 157.24 314.52 160.00 309.00
C 170.37 288.26 200.11 289.66 204.00 314.00
M 256.00 300.00 
C 257.17 296.75 256.59 293.46 262.00 295.00
C 262.00 311.67 262.00 328.33 262.00 345.00
C 257.73 346.27 254.80 343.23 256.00 339.00
C 255.43 337.63 256.99 334.41 254.00 335.00
C 240.79 355.96 213.18 342.43 213.00 320.00 C 212.82 297.57 240.29 283.05 254.00 304.00
C 256.53 304.63 255.90 301.47 256.00 300.00
M 307.00 327.00 
C 308.17 330.10 308.15 332.95 307.00 336.00
C 305.15 340.89 300.69 343.63 296.00 345.00
C 292.50 346.02 289.44 345.97 286.00 345.00
C 280.22 343.36 267.91 336.23 279.00 332.00
C 282.40 343.36 304.79 337.44 299.22 327.78 C 293.65 318.12 279.10 323.88 276.00 312.00
C 274.47 307.86 275.09 305.54 277.00 302.00
C 282.77 291.31 297.48 291.47 305.00 301.00
C 305.05 303.22 302.71 304.99 301.00 306.00
C 294.95 295.09 276.66 305.58 285.25 312.75 C 293.84 319.92 302.59 315.39 307.00 327.00
M 370.00 315.00 
C 369.29 318.80 369.94 323.51 371.00 327.00
C 375.85 337.62 390.25 342.74 399.00 333.00
C 411.39 340.58 390.49 346.78 382.00 345.00 C 373.51 343.22 362.89 334.99 363.00 325.00
C 362.27 321.21 362.23 317.74 363.00 314.00
C 364.31 307.68 366.91 302.54 372.25 298.25 C 377.58 293.96 386.68 293.99 392.22 294.78 C 397.76 295.56 406.80 302.60 401.75 305.75 C 396.69 308.89 390.01 299.02 383.00 302.00 C 375.99 304.98 372.43 307.53 370.00 315.00
M 442.00 295.00 
C 452.18 297.11 458.72 305.19 461.00 315.00
C 461.76 318.27 461.51 320.85 461.00 324.00
C 460.82 327.34 460.47 329.09 459.00 332.00
C 456.76 336.43 452.55 340.97 448.00 343.00
C 446.09 343.85 444.01 344.46 442.00 345.00
C 438.45 345.95 435.46 345.77 432.00 345.00
C 415.62 341.37 408.18 324.38 414.00 309.00
C 415.64 304.66 418.86 300.61 423.00 298.00
C 424.64 296.97 426.19 296.51 428.00 296.00
C 432.91 293.90 436.85 293.93 442.00 295.00
M 577.00 321.00 
C 574.77 327.11 564.45 323.05 559.00 324.00 C 553.55 324.95 543.84 323.29 538.00 324.00
C 535.96 327.26 542.69 332.69 545.08 334.92 C 547.47 337.15 557.02 339.83 560.22 337.22 C 563.43 334.61 572.50 333.51 571.92 338.08 C 571.35 342.64 562.86 344.22 560.00 345.00
C 556.45 345.96 553.46 345.77 550.00 345.00
C 540.35 342.86 533.38 335.59 531.00 326.00
C 530.06 322.19 530.28 318.72 531.00 315.00
C 532.04 301.96 544.77 293.03 556.67 294.33 C 568.57 295.63 581.64 308.26 577.00 321.00
M 332.00 360.00 
C 331.46 361.09 331.30 362.77 331.00 364.00
C 328.69 364.18 321.58 364.66 325.00 361.00
C 325.12 353.21 332.89 346.34 329.08 338.92 C 325.27 331.51 324.25 324.36 321.02 316.98 C 317.80 309.59 314.03 303.10 313.00 295.00
C 323.21 292.71 323.03 305.17 326.26 311.74 C 329.48 318.32 331.24 326.74 335.00 333.00
C 338.49 326.31 339.93 317.97 343.32 311.32 C 346.72 304.67 346.83 292.81 357.00 295.00
C 350.31 317.04 340.01 338.43 332.00 360.00
M 74.00 315.00 
C 76.93 316.52 77.27 324.53 72.92 324.92 C 68.56 325.30 61.77 325.19 57.78 324.22 C 53.79 323.25 54.07 314.63 58.08 315.08 C 62.09 315.53 70.41 313.14 74.00 315.00
M 140.00 324.00 
C 139.53 324.12 139.00 324.00 139.00 324.00
C 137.35 325.22 124.78 329.65 122.25 322.75 C 119.73 315.84 128.42 316.35 134.00 315.00 C 139.58 313.65 148.37 321.81 140.00 324.00
M 73.00 352.00 
C 72.60 352.20 72.00 352.00 72.00 352.00
C 65.58 357.14 64.58 345.37 69.25 342.25 C 73.92 339.13 79.90 331.85 82.92 338.08 C 85.94 344.31 76.46 350.30 73.00 352.00
M 121.00 336.00 
C 128.59 338.29 134.51 353.71 124.78 352.22 C 115.05 350.73 110.33 332.79 121.00 336.00
M 103.00 347.00 
C 104.84 350.34 104.38 356.69 103.00 360.00
C 101.17 364.39 96.62 365.76 94.00 361.00
C 92.34 357.99 91.17 345.55 96.00 344.00
C 98.96 343.05 101.64 344.54 103.00 347.00 Z"/>
</g>
<g fill="#8CCAFF" fill-opacity="1.00" stroke="None">
<path d="
M 346.00 1.00 
C 345.96 1.00 346.00 0.00 346.00 0.00
L 336.00 0.00
C 338.35 1.80 342.83 1.00 346.00 1.00 Z"/>
</g>
<g fill="#FDFEFE" fill-opacity="1.00" stroke="None">
<path d="
M 346.00 1.00 
C 383.91 1.00 422.34 17.11 455.77 30.23 C 489.21 43.34 510.22 65.44 539.00 86.00
C 545.60 90.71 551.80 97.92 557.00 104.00
C 579.27 130.06 596.93 154.73 610.70 186.31 C 624.46 217.88 639.00 257.99 639.00 294.00
C 639.00 293.96 640.00 294.00 640.00 294.00
L 640.00 0.00
L 346.00 0.00
C 346.00 0.00 345.96 1.00 346.00 1.00 Z"/>
</g>
<g fill="#D8F4FE" fill-opacity="1.00" stroke="None">
<path d="
M 73.00 115.00 
C 82.35 103.62 94.38 92.62 105.00 82.00
C 93.90 91.48 80.72 103.04 73.00 115.00 Z"/>
</g>
<g fill="#CBEEFF" fill-opacity="1.00" stroke="None">
<path d="
M 557.00 104.00 
C 551.80 97.92 545.60 90.71 539.00 86.00
C 545.12 91.13 551.27 98.27 557.00 104.00 Z"/>
</g>
<g fill="#BADEFF" fill-opacity="1.00" stroke="None">
<path d="
M 512.00 268.00 
C 514.00 268.00 516.00 268.00 518.00 268.00
C 518.00 293.33 518.00 318.67 518.00 344.00
C 513.99 345.43 514.55 341.83 513.00 340.00
C 511.81 344.11 515.49 345.91 519.00 345.00
C 519.00 319.00 519.00 293.00 519.00 267.00
C 516.61 267.24 513.71 266.29 512.00 268.00 Z"/>
</g>
<g fill="#629CE7" fill-opacity="1.00" stroke="None">
<path d="
M 505.00 297.00 
C 507.45 298.91 508.93 302.77 512.00 304.00
C 512.00 292.00 512.00 280.00 512.00 268.00
C 509.67 278.34 511.66 290.83 511.00 302.00
C 508.79 300.71 507.18 298.45 505.00 297.00 Z"/>
</g>
<g fill="#F1FAFA" fill-opacity="1.00" stroke="None">
<path d="
M 505.00 297.00 
C 489.07 286.40 473.44 300.19 470.00 315.00
C 469.66 318.05 469.64 321.95 470.00 325.00
C 471.20 344.64 501.91 353.41 511.00 335.00
C 514.19 334.59 512.52 338.28 513.00 340.00
C 514.55 341.83 513.99 345.43 518.00 344.00
C 518.00 318.67 518.00 293.33 518.00 268.00
C 516.00 268.00 514.00 268.00 512.00 268.00
C 512.00 280.00 512.00 292.00 512.00 304.00
C 508.93 302.77 507.45 298.91 505.00 297.00
M 497.00 338.00 
C 493.09 338.87 491.62 338.93 488.00 337.00
C 484.62 335.19 482.41 332.94 480.00 330.00
C 475.63 324.68 474.98 319.10 478.00 313.00
C 483.92 301.02 498.80 296.46 508.25 307.75 C 517.70 319.05 509.67 335.19 497.00 338.00 Z"/>
</g>
<g fill="#6CA8F1" fill-opacity="1.00" stroke="None">
<path d="
M 94.00 293.00 
C 94.00 289.29 92.09 277.52 97.00 276.00
C 91.38 277.09 91.75 289.96 94.00 293.00 Z"/>
</g>
<g fill="#EFFAF9" fill-opacity="1.00" stroke="None">
<path d="
M 94.00 293.00 
C 94.00 293.00 93.88 293.53 94.00 294.00
C 101.19 304.25 104.71 283.69 103.00 279.00
C 101.72 276.68 99.81 275.45 97.00 276.00
C 92.09 277.52 94.00 289.29 94.00 293.00 Z"/>
</g>
<g fill="#5996E3" fill-opacity="1.00" stroke="None">
<path d="
M 94.00 294.00 
C 95.23 298.71 102.53 297.55 103.22 293.22 C 103.91 288.89 105.15 282.90 103.00 279.00
C 104.71 283.69 101.19 304.25 94.00 294.00 Z"/>
</g>
<g fill="#93C2F9" fill-opacity="1.00" stroke="None">
<path d="
M 114.00 298.00 
C 115.05 294.07 127.56 285.04 130.25 289.75 C 132.93 294.47 121.48 305.13 117.00 304.00
C 120.75 305.82 134.23 295.86 131.25 289.75 C 128.26 283.65 115.09 292.37 114.00 298.00 Z"/>
</g>
<g fill="#F3FBFA" fill-opacity="1.00" stroke="None">
<path d="
M 114.00 298.00 
C 113.48 300.70 114.59 302.83 117.00 304.00
C 121.48 305.13 132.93 294.47 130.25 289.75 C 127.56 285.04 115.05 294.07 114.00 298.00 Z"/>
</g>
<g fill="#C9F2FF" fill-opacity="1.00" stroke="None">
<path d="
M 0.00 298.00 
C 0.50 298.00 1.00 298.00 1.00 298.00
C 1.00 295.04 0.72 291.94 1.00 289.00
C 1.00 289.00 0.50 289.00 0.00 289.00
L 0.00 298.00 Z"/>
</g>
<g fill="#EFF8FA" fill-opacity="1.00" stroke="None">
<path d="
M 160.00 309.00 
C 158.18 313.93 157.42 319.46 158.00 325.00
C 158.18 326.69 158.47 327.49 159.00 329.00
C 161.27 333.83 166.43 340.08 171.00 343.00
C 173.15 344.09 174.73 344.44 177.00 345.00
C 180.05 345.38 183.94 345.31 187.00 345.00
C 193.02 344.68 204.12 339.69 197.00 333.00
C 193.42 335.07 190.11 336.98 186.00 338.00
C 181.76 339.05 179.89 338.78 176.00 337.00
C 171.93 335.14 166.47 332.32 166.00 327.00
C 165.37 325.63 162.61 324.49 164.00 322.00
C 171.42 322.01 180.78 321.99 188.00 322.00 C 195.22 322.01 205.45 324.07 204.00 314.00
C 200.11 289.66 170.37 288.26 160.00 309.00
M 197.00 312.00 
C 197.33 313.21 198.77 315.14 198.00 317.00
C 187.17 316.33 175.01 318.33 165.00 316.00
C 162.48 312.12 169.39 307.08 172.25 304.25 C 175.11 301.41 182.54 300.30 187.02 301.98 C 191.50 303.65 195.65 307.00 197.00 312.00 Z"/>
</g>
<g fill="#ECF7FA" fill-opacity="1.00" stroke="None">
<path d="
M 256.00 339.00 
C 256.96 341.31 256.85 345.30 261.00 344.00
C 261.00 328.00 261.00 312.00 261.00 296.00
C 257.55 294.86 257.49 298.57 256.00 300.00
C 255.90 301.47 256.53 304.63 254.00 304.00
C 240.29 283.05 212.82 297.57 213.00 320.00 C 213.18 342.43 240.79 355.96 254.00 335.00
C 256.99 334.41 255.43 337.63 256.00 339.00
M 242.00 302.00 
C 261.20 306.76 258.21 337.51 238.00 338.00 C 217.79 338.48 213.43 308.44 232.00 302.00
C 235.49 300.79 238.61 301.16 242.00 302.00 Z"/>
</g>
<g fill="#ECF7FA" fill-opacity="1.00" stroke="None">
<path d="
M 277.00 302.00 
C 275.97 304.83 275.30 308.85 276.00 312.00
C 279.10 323.88 293.65 318.12 299.22 327.78 C 304.79 337.44 282.40 343.36 279.00 332.00
C 267.91 336.23 280.22 343.36 286.00 345.00
C 288.85 345.43 293.15 345.45 296.00 345.00
C 300.69 343.63 305.15 340.89 307.00 336.00
C 307.50 333.81 307.50 329.19 307.00 327.00
C 302.59 315.39 293.84 319.92 285.25 312.75 C 276.66 305.58 294.95 295.09 301.00 306.00
C 302.71 304.99 305.05 303.22 305.00 301.00
C 297.48 291.47 282.77 291.31 277.00 302.00 Z"/>
</g>
<g fill="#E9F6FA" fill-opacity="1.00" stroke="None">
<path d="
M 363.00 314.00 
C 362.68 317.49 362.72 321.51 363.00 325.00
C 362.89 334.99 373.51 343.22 382.00 345.00 C 390.49 346.78 411.39 340.58 399.00 333.00
C 390.25 342.74 375.85 337.62 371.00 327.00
C 369.07 322.78 368.53 319.52 370.00 315.00
C 372.43 307.53 375.99 304.98 383.00 302.00 C 390.01 299.02 396.69 308.89 401.75 305.75 C 406.80 302.60 397.76 295.56 392.22 294.78 C 386.68 293.99 377.58 293.96 372.25 298.25 C 366.91 302.54 364.31 307.68 363.00 314.00 Z"/>
</g>
<g fill="#A8CEF8" fill-opacity="1.00" stroke="None">
<path d="
M 428.00 296.00 
C 432.26 294.79 437.38 294.58 442.00 295.00
C 436.85 293.93 432.91 293.90 428.00 296.00 Z"/>
</g>
<g fill="#EDF8FA" fill-opacity="1.00" stroke="None">
<path d="
M 531.00 315.00 
C 530.73 318.43 530.58 322.59 531.00 326.00
C 533.38 335.59 540.35 342.86 550.00 345.00
C 553.02 345.31 556.99 345.43 560.00 345.00
C 562.86 344.22 571.35 342.64 571.92 338.08 C 572.50 333.51 563.43 334.61 560.22 337.22 C 557.02 339.83 547.47 337.15 545.08 334.92 C 542.69 332.69 535.96 327.26 538.00 324.00
C 540.63 319.80 553.72 324.97 558.00 323.00 C 562.28 321.03 574.24 326.34 577.00 321.00
C 581.64 308.26 568.57 295.63 556.67 294.33 C 544.77 293.03 532.04 301.96 531.00 315.00
M 570.00 313.00 
C 570.17 313.82 571.85 315.52 571.00 317.00
C 559.67 317.00 548.33 317.00 537.00 317.00
C 537.11 316.00 536.53 314.27 538.00 314.00
C 539.34 297.40 566.83 297.37 570.00 313.00 Z"/>
</g>
<g fill="#80C5FF" fill-opacity="1.00" stroke="None">
<path d="
M 640.00 306.00 
L 640.00 294.00
C 640.00 294.00 639.00 293.96 639.00 294.00
C 639.00 297.84 638.23 302.91 640.00 306.00 Z"/>
</g>
<g fill="#B7DBFD" fill-opacity="1.00" stroke="None">
<path d="
M 256.00 300.00 
C 257.49 298.57 257.55 294.86 261.00 296.00
C 261.00 312.00 261.00 328.00 261.00 344.00
C 256.85 345.30 256.96 341.31 256.00 339.00
C 254.80 343.23 257.73 346.27 262.00 345.00
C 262.00 328.33 262.00 311.67 262.00 295.00
C 256.59 293.46 257.17 296.75 256.00 300.00 Z"/>
</g>
<g fill="#E4F3FA" fill-opacity="1.00" stroke="None">
<path d="
M 325.00 361.00 
C 326.50 364.94 330.22 362.51 332.00 360.00
C 340.01 338.43 350.31 317.04 357.00 295.00
C 346.83 292.81 346.72 304.67 343.32 311.32 C 339.93 317.97 338.49 326.31 335.00 333.00
C 331.24 326.74 329.48 318.32 326.26 311.74 C 323.03 305.17 323.21 292.71 313.00 295.00
C 314.03 303.10 317.80 309.59 321.02 316.98 C 324.25 324.36 325.27 331.51 329.08 338.92 C 332.89 346.34 325.12 353.21 325.00 361.00 Z"/>
</g>
<g fill="#EDF8F9" fill-opacity="1.00" stroke="None">
<path d="
M 428.00 296.00 
C 426.19 296.51 424.64 296.97 423.00 298.00
C 419.85 300.33 415.52 305.78 414.00 309.00
C 408.18 324.38 415.62 341.37 432.00 345.00
C 435.03 345.31 438.99 345.42 442.00 345.00
C 444.01 344.46 446.09 343.85 448.00 343.00
C 451.51 341.00 456.86 335.35 459.00 332.00
C 460.47 329.09 460.82 327.34 461.00 324.00
C 461.16 321.13 461.32 317.85 461.00 315.00
C 458.72 305.19 452.18 297.11 442.00 295.00
C 437.38 294.58 432.26 294.79 428.00 296.00
M 442.00 302.00 
C 460.90 309.15 456.47 339.10 436.00 338.00 C 415.53 336.90 413.09 307.12 432.00 302.00
C 435.40 301.08 438.62 300.72 442.00 302.00 Z"/>
</g>
<g fill="#4EA2FD" fill-opacity="1.00" stroke="None">
<path d="
M 0.00 312.00 
C 1.82 308.33 1.00 302.50 1.00 298.00
C 1.00 298.00 0.50 298.00 0.00 298.00
L 0.00 312.00 Z"/>
</g>
<g fill="#92C1F5" fill-opacity="1.00" stroke="None">
<path d="
M 414.00 309.00 
C 415.52 305.78 419.85 300.33 423.00 298.00
C 418.86 300.61 415.64 304.66 414.00 309.00 Z"/>
</g>
<g fill="#186DEF" fill-opacity="1.00" stroke="None">
<path d="
M 165.00 316.00 
C 175.67 316.00 186.33 316.00 197.00 316.00
C 197.00 314.67 197.00 313.33 197.00 312.00
C 195.65 307.00 191.50 303.65 187.02 301.98 C 182.54 300.30 175.11 301.41 172.25 304.25 C 169.39 307.08 162.48 312.12 165.00 316.00 Z"/>
</g>
<g fill="#80AEEC" fill-opacity="1.00" stroke="None">
<path d="
M 232.00 302.00 
C 234.78 301.43 239.18 301.65 242.00 302.00
C 238.61 301.16 235.49 300.79 232.00 302.00 Z"/>
</g>
<g fill="#8BB7EA" fill-opacity="1.00" stroke="None">
<path d="
M 432.00 302.00 
C 434.70 301.61 439.34 301.39 442.00 302.00
C 438.62 300.72 435.40 301.08 432.00 302.00 Z"/>
</g>
<g fill="#106AF4" fill-opacity="1.00" stroke="None">
<path d="
M 478.00 313.00 
C 476.23 318.52 476.97 325.05 480.00 330.00
C 482.41 332.94 484.62 335.19 488.00 337.00
C 490.74 338.00 493.93 338.25 497.00 338.00
C 509.67 335.19 517.70 319.05 508.25 307.75 C 498.80 296.46 483.92 301.02 478.00 313.00 Z"/>
</g>
<g fill="#176CF0" fill-opacity="1.00" stroke="None">
<path d="
M 538.00 314.00 
C 539.53 318.29 548.42 315.27 553.00 316.00 C 557.58 316.73 565.15 315.45 570.00 316.00
C 570.00 315.00 570.00 314.00 570.00 313.00
C 566.83 297.37 539.34 297.40 538.00 314.00 Z"/>
</g>
<g fill="#0E6AF4" fill-opacity="1.00" stroke="None">
<path d="
M 242.00 302.00 
C 239.18 301.65 234.78 301.43 232.00 302.00
C 213.43 308.44 217.79 338.48 238.00 338.00 C 258.21 337.51 261.20 306.76 242.00 302.00 Z"/>
</g>
<g fill="#80B6F8" fill-opacity="1.00" stroke="None">
<path d="
M 276.00 312.00 
C 275.30 308.85 275.97 304.83 277.00 302.00
C 275.09 305.54 274.47 307.86 276.00 312.00 Z"/>
</g>
<g fill="#116BF5" fill-opacity="1.00" stroke="None">
<path d="
M 442.00 302.00 
C 439.34 301.39 434.70 301.61 432.00 302.00
C 413.09 307.12 415.53 336.90 436.00 338.00 C 456.47 339.10 460.90 309.15 442.00 302.00 Z"/>
</g>
<g fill="#75AAEF" fill-opacity="1.00" stroke="None">
<path d="
M 158.00 325.00 
C 157.42 319.46 158.18 313.93 160.00 309.00
C 157.24 314.52 156.54 318.85 158.00 325.00 Z"/>
</g>
<g fill="#BEE0FD" fill-opacity="1.00" stroke="None">
<path d="
M 165.00 316.00 
C 175.01 318.33 187.17 316.33 198.00 317.00
C 198.77 315.14 197.33 313.21 197.00 312.00
C 197.00 313.33 197.00 314.67 197.00 316.00
C 186.33 316.00 175.67 316.00 165.00 316.00 Z"/>
</g>
<g fill="#A3CFF6" fill-opacity="1.00" stroke="None">
<path d="
M 480.00 330.00 
C 476.97 325.05 476.23 318.52 478.00 313.00
C 474.98 319.10 475.63 324.68 480.00 330.00 Z"/>
</g>
<g fill="#C5E4FD" fill-opacity="1.00" stroke="None">
<path d="
M 538.00 314.00 
C 536.53 314.27 537.11 316.00 537.00 317.00
C 548.33 317.00 559.67 317.00 571.00 317.00
C 571.85 315.52 570.17 313.82 570.00 313.00
C 570.00 314.00 570.00 315.00 570.00 316.00
C 565.15 315.45 557.58 316.73 553.00 316.00 C 548.42 315.27 539.53 318.29 538.00 314.00 Z"/>
</g>
<g fill="#CBEDFE" fill-opacity="1.00" stroke="None">
<path d="
M 166.00 327.00 
C 165.96 326.50 166.19 325.41 166.00 325.00
C 164.32 321.38 177.77 323.94 182.00 323.00 C 186.23 322.06 197.55 324.72 202.00 323.00
C 205.97 320.69 204.51 317.17 204.00 314.00
C 205.45 324.07 195.22 322.01 188.00 322.00 C 180.78 321.99 171.42 322.01 164.00 322.00
C 162.61 324.49 165.37 325.63 166.00 327.00 Z"/>
</g>
<g fill="#B6DAFD" fill-opacity="1.00" stroke="None">
<path d="
M 363.00 325.00 
C 362.72 321.51 362.68 317.49 363.00 314.00
C 362.23 317.74 362.27 321.21 363.00 325.00 Z"/>
</g>
<g fill="#97C9FB" fill-opacity="1.00" stroke="None">
<path d="
M 74.00 315.00 
C 70.41 313.14 62.09 315.53 58.08 315.08 C 54.07 314.63 53.79 323.25 57.78 324.22 C 61.77 325.19 68.56 325.30 72.92 324.92 C 77.27 324.53 76.93 316.52 74.00 315.00
M 73.00 316.00 
C 75.73 317.41 75.83 323.67 71.92 323.92 C 68.01 324.17 62.09 324.18 58.33 323.67 C 54.57 323.16 55.64 315.51 59.08 316.08 C 62.53 316.65 69.83 314.36 73.00 316.00 Z"/>
</g>
<g fill="#9CCCFC" fill-opacity="1.00" stroke="None">
<path d="
M 139.00 324.00 
C 134.33 324.00 127.32 327.41 123.75 322.25 C 120.19 317.08 129.98 316.11 134.00 316.00 C 138.02 315.89 146.69 319.31 140.00 324.00
C 148.37 321.81 139.58 313.65 134.00 315.00 C 128.42 316.35 119.73 315.84 122.25 322.75 C 124.78 329.65 137.35 325.22 139.00 324.00 Z"/>
</g>
<g fill="#8FB7EA" fill-opacity="1.00" stroke="None">
<path d="
M 371.00 327.00 
C 369.94 323.51 369.29 318.80 370.00 315.00
C 368.53 319.52 369.07 322.78 371.00 327.00 Z"/>
</g>
<g fill="#8DB8F5" fill-opacity="1.00" stroke="None">
<path d="
M 461.00 324.00 
C 461.51 320.85 461.76 318.27 461.00 315.00
C 461.32 317.85 461.16 321.13 461.00 324.00 Z"/>
</g>
<g fill="#629CF2" fill-opacity="1.00" stroke="None">
<path d="
M 470.00 325.00 
C 469.64 321.95 469.66 318.05 470.00 315.00
C 469.19 318.48 469.15 321.46 470.00 325.00 Z"/>
</g>
<g fill="#9CC7F4" fill-opacity="1.00" stroke="None">
<path d="
M 531.00 326.00 
C 530.58 322.59 530.73 318.43 531.00 315.00
C 530.28 318.72 530.06 322.19 531.00 326.00 Z"/>
</g>
<g fill="#F6FCF8" fill-opacity="1.00" stroke="None">
<path d="
M 73.00 316.00 
C 69.83 314.36 62.53 316.65 59.08 316.08 C 55.64 315.51 54.57 323.16 58.33 323.67 C 62.09 324.18 68.01 324.17 71.92 323.92 C 75.83 323.67 75.73 317.41 73.00 316.00 Z"/>
</g>
<g fill="#F6FCF7" fill-opacity="1.00" stroke="None">
<path d="
M 139.00 324.00 
C 139.00 324.00 139.53 324.12 140.00 324.00
C 146.69 319.31 138.02 315.89 134.00 316.00 C 129.98 316.11 120.19 317.08 123.75 322.25 C 127.32 327.41 134.33 324.00 139.00 324.00 Z"/>
</g>
<g fill="#4983D1" fill-opacity="1.00" stroke="None">
<path d="
M 538.00 324.00 
C 543.84 323.29 553.55 324.95 559.00 324.00 C 564.45 323.05 574.77 327.11 577.00 321.00
C 574.24 326.34 562.28 321.03 558.00 323.00 C 553.72 324.97 540.63 319.80 538.00 324.00 Z"/>
</g>
<g fill="#4782CE" fill-opacity="1.00" stroke="None">
<path d="
M 166.00 325.00 
C 168.50 321.16 179.39 325.30 184.00 324.00 C 188.61 322.70 197.68 325.51 202.00 323.00
C 197.55 324.72 186.23 322.06 182.00 323.00 C 177.77 323.94 164.32 321.38 166.00 325.00 Z"/>
</g>
<g fill="#8DBCF1" fill-opacity="1.00" stroke="None">
<path d="
M 307.00 336.00 
C 308.15 332.95 308.17 330.10 307.00 327.00
C 307.50 329.19 307.50 333.81 307.00 336.00 Z"/>
</g>
<g fill="#9BCAF8" fill-opacity="1.00" stroke="None">
<path d="
M 171.00 343.00 
C 166.43 340.08 161.27 333.83 159.00 329.00
C 161.05 334.84 165.25 340.09 171.00 343.00 Z"/>
</g>
<g fill="#68B2FF" fill-opacity="1.00" stroke="None">
<path d="
M 0.00 345.00 
C 0.50 345.00 1.00 345.00 1.00 345.00
C 0.74 340.14 1.99 334.10 0.00 330.00
L 0.00 345.00 Z"/>
</g>
<g fill="#A4D3FB" fill-opacity="1.00" stroke="None">
<path d="
M 448.00 343.00 
C 452.55 340.97 456.76 336.43 459.00 332.00
C 456.86 335.35 451.51 341.00 448.00 343.00 Z"/>
</g>
<g fill="#6EB8FF" fill-opacity="1.00" stroke="None">
<path d="
M 639.00 344.00 
C 639.00 343.96 640.00 344.00 640.00 344.00
L 640.00 333.00
C 638.19 335.68 639.00 340.50 639.00 344.00 Z"/>
</g>
<g fill="#92C3FB" fill-opacity="1.00" stroke="None">
<path d="
M 72.00 352.00 
C 62.42 352.86 67.72 345.50 70.75 341.75 C 73.78 338.00 81.52 333.57 81.97 340.03 C 82.43 346.49 76.07 347.61 73.00 352.00
C 76.46 350.30 85.94 344.31 82.92 338.08 C 79.90 331.85 73.92 339.13 69.25 342.25 C 64.58 345.37 65.58 357.14 72.00 352.00 Z"/>
</g>
<g fill="#F4FCF9" fill-opacity="1.00" stroke="None">
<path d="
M 72.00 352.00 
C 72.00 352.00 72.60 352.20 73.00 352.00
C 76.07 347.61 82.43 346.49 81.97 340.03 C 81.52 333.57 73.78 338.00 70.75 341.75 C 67.72 345.50 62.42 352.86 72.00 352.00 Z"/>
</g>
<g fill="#EBF8FA" fill-opacity="1.00" stroke="None">
<path d="
M 121.00 336.00 
C 110.33 332.79 115.05 350.73 124.78 352.22 C 134.51 353.71 128.59 338.29 121.00 336.00 Z"/>
</g>
<g fill="#A9CDFD" fill-opacity="1.00" stroke="None">
<path d="
M 186.00 338.00 
C 182.61 338.42 179.06 337.93 176.00 337.00
C 179.89 338.78 181.76 339.05 186.00 338.00 Z"/>
</g>
<g fill="#B5DBFE" fill-opacity="1.00" stroke="None">
<path d="
M 497.00 338.00 
C 493.93 338.25 490.74 338.00 488.00 337.00
C 491.62 338.93 493.09 338.87 497.00 338.00 Z"/>
</g>
<g fill="#64A2ED" fill-opacity="1.00" stroke="None">
<path d="
M 94.00 361.00 
C 93.03 358.33 92.99 345.45 96.00 344.00
C 91.17 345.55 92.34 357.99 94.00 361.00 Z"/>
</g>
<g fill="#EFFAF9" fill-opacity="1.00" stroke="None">
<path d="
M 94.00 361.00 
C 96.62 365.76 101.17 364.39 103.00 360.00
C 103.68 357.38 103.92 349.53 103.00 347.00
C 101.64 344.54 98.96 343.05 96.00 344.00
C 92.99 345.45 93.03 358.33 94.00 361.00 Z"/>
</g>
<g fill="#FDFEFE" fill-opacity="1.00" stroke="None">
<path d="
M 610.00 456.00 
C 608.22 460.83 605.49 464.81 603.00 469.00
C 591.27 493.81 574.12 514.79 556.00 536.00
C 552.48 541.45 545.04 548.84 539.00 554.00
C 482.92 601.92 418.33 634.96 344.00 639.00
C 343.99 639.00 344.00 640.00 344.00 640.00
L 640.00 640.00
L 640.00 344.00
C 640.00 344.00 639.00 343.96 639.00 344.00
C 639.00 384.07 623.34 419.86 610.00 456.00 Z"/>
</g>
<g fill="#FDFEFE" fill-opacity="1.00" stroke="None">
<path d="
M 0.00 640.00 
L 294.00 640.00
C 294.00 639.50 294.00 639.00 294.00 639.00
C 254.13 635.84 220.49 623.47 184.00 610.00
C 179.17 608.22 175.19 605.49 171.00 603.00
C 145.34 590.87 123.01 572.80 101.00 554.00
C 95.68 549.45 90.50 544.27 86.00 539.00
C 84.08 536.75 81.96 534.30 80.00 532.00
C 76.96 528.96 74.41 526.51 72.00 523.00
C 53.81 496.48 37.08 475.31 24.98 445.02 C 12.87 414.74 2.83 378.80 1.00 345.00
C 1.00 345.00 0.50 345.00 0.00 345.00
L 0.00 640.00 Z"/>
</g>
<g fill="#77A9E8" fill-opacity="1.00" stroke="None">
<path d="
M 187.00 345.00 
C 183.94 345.31 180.05 345.38 177.00 345.00
C 180.49 345.87 183.47 345.78 187.00 345.00 Z"/>
</g>
<g fill="#73ADEB" fill-opacity="1.00" stroke="None">
<path d="
M 296.00 345.00 
C 293.15 345.45 288.85 345.43 286.00 345.00
C 289.44 345.97 292.50 346.02 296.00 345.00 Z"/>
</g>
<g fill="#7FAAEC" fill-opacity="1.00" stroke="None">
<path d="
M 442.00 345.00 
C 438.99 345.42 435.03 345.31 432.00 345.00
C 435.46 345.77 438.45 345.95 442.00 345.00 Z"/>
</g>
<g fill="#7AA9EB" fill-opacity="1.00" stroke="None">
<path d="
M 560.00 345.00 
C 556.99 345.43 553.02 345.31 550.00 345.00
C 553.46 345.77 556.45 345.96 560.00 345.00 Z"/>
</g>
<g fill="#4C88D7" fill-opacity="1.00" stroke="None">
<path d="
M 103.00 360.00 
C 104.38 356.69 104.84 350.34 103.00 347.00
C 103.92 349.53 103.68 357.38 103.00 360.00 Z"/>
</g>
<g fill="#AAD3FD" fill-opacity="1.00" stroke="None">
<path d="
M 325.00 361.00 
C 321.58 364.66 328.69 364.18 331.00 364.00
C 331.30 362.77 331.46 361.09 332.00 360.00
C 330.22 362.51 326.50 364.94 325.00 361.00 Z"/>
</g>
<g fill="#97C3F3" fill-opacity="1.00" stroke="None">
<path d="
M 603.00 469.00 
C 605.49 464.81 608.22 460.83 610.00 456.00
C 607.90 460.15 605.11 464.54 603.00 469.00 Z"/>
</g>
<g fill="#C1E7FD" fill-opacity="1.00" stroke="None">
<path d="
M 80.00 532.00 
C 77.36 528.91 74.74 525.96 72.00 523.00
C 74.41 526.51 76.96 528.96 80.00 532.00 Z"/>
</g>
<g fill="#CBEEFF" fill-opacity="1.00" stroke="None">
<path d="
M 539.00 554.00 
C 545.04 548.84 552.48 541.45 556.00 536.00
C 550.79 542.10 544.72 548.28 539.00 554.00 Z"/>
</g>
<g fill="#CAECFF" fill-opacity="1.00" stroke="None">
<path d="
M 101.00 554.00 
C 96.13 549.13 90.92 543.92 86.00 539.00
C 90.50 544.27 95.68 549.45 101.00 554.00 Z"/>
</g>
<g fill="#98C3F3" fill-opacity="1.00" stroke="None">
<path d="
M 184.00 610.00 
C 179.85 607.90 175.46 605.11 171.00 603.00
C 175.19 605.49 179.17 608.22 184.00 610.00 Z"/>
</g>
<g fill="#62B0FD" fill-opacity="1.00" stroke="None">
<path d="
M 294.00 640.00 
L 312.00 640.00
C 306.98 637.82 299.85 639.46 294.00 639.00
C 294.00 639.00 294.00 639.50 294.00 640.00 Z"/>
</g>
<g fill="#6FB6FF" fill-opacity="1.00" stroke="None">
<path d="
M 333.00 640.00 
L 344.00 640.00
C 344.00 640.00 343.99 639.00 344.00 639.00
C 340.47 639.19 335.77 638.10 333.00 640.00 Z"/>
</g>
</svg>