<svg width="87" height="48" viewBox="0 0 87 48" fill="none" xmlns="http://www.w3.org/2000/svg">
<path d="M1.12119 1.4662C0.241697 2.3284 0.161741 3.6776 0.881327 4.62835L1.12119 4.90073L20.9723 24.3607L1.12119 43.8207C0.241697 44.6829 0.161741 46.0321 0.881327 46.9828L1.12119 47.2552C2.00068 48.1174 3.37694 48.1958 4.34676 47.4903L4.62461 47.2552L26.2266 26.078C27.1061 25.2158 27.186 23.8666 26.4664 22.9158L26.2266 22.6434L4.62461 1.4662C3.65716 0.517778 2.08863 0.517778 1.12119 1.4662Z" fill="white" fill-opacity="0.3"/>
<path d="M30.7662 1.4662C29.8867 2.3284 29.8068 3.6776 30.5263 4.62835L30.7662 4.90073L50.6173 24.3607L30.7662 43.8207C29.8867 44.6829 29.8068 46.0321 30.5263 46.9828L30.7662 47.2552C31.6457 48.1174 33.022 48.1958 33.9918 47.4903L34.2696 47.2552L55.8716 26.078C56.7511 25.2158 56.831 23.8666 56.1114 22.9158L55.8716 22.6434L34.2696 1.4662C33.3022 0.517778 31.7337 0.517778 30.7662 1.4662Z" fill="white" fill-opacity="0.6"/>
<path d="M60.4171 1.4662C59.5376 2.3284 59.4576 3.6776 60.1772 4.62835L60.4171 4.90073L80.2682 24.3607L60.4171 43.8207C59.5376 44.6829 59.4576 46.0321 60.1772 46.9828L60.4171 47.2552C61.2966 48.1174 62.6728 48.1958 63.6427 47.4903L63.9205 47.2552L85.5225 26.078C86.402 25.2158 86.4819 23.8666 85.7623 22.9158L85.5225 22.6434L63.9205 1.4662C62.9531 0.517778 61.3845 0.517778 60.4171 1.4662Z" fill="white"/>
</svg>
